<!DOCTYPE svg PUBLIC "-//W3C//DTD SVG 1.1//EN" "http://www.w3.org/Graphics/SVG/1.1/DTD/svg11.dtd">
<!-- Uploaded to: SVG Repo, www.svgrepo.com, Transformed by: SVG Repo Mixer Tools -->
<svg fill="#000000" width="64px" height="64px" viewBox="0 0 24 24" id="bill" data-name="Flat Color" xmlns="http://www.w3.org/2000/svg" class="icon flat-color">
<g id="SVGRepo_bgCarrier" stroke-width="0"/>
<g id="SVGRepo_tracerCarrier" stroke-linecap="round" stroke-linejoin="round"/>
<g id="SVGRepo_iconCarrier">
<path id="primary" d="M18,2H6A2,2,0,0,0,4,4V21a1,1,0,0,0,1.39.92l2-.83,1.94.83a1,1,0,0,0,.78,0L12,21.09l1.94.83a1,1,0,0,0,.78,0l1.94-.83,1.94.83A1,1,0,0,0,19,22a1,1,0,0,0,.55-.17A1,1,0,0,0,20,21V4A2,2,0,0,0,18,2Z" style="fill: #000000;"/>
<path id="secondary" d="M16,16H8a1,1,0,0,1,0-2h8a1,1,0,0,1,0,2Zm0-4H8a1,1,0,0,1,0-2h8a1,1,0,0,1,0,2ZM13,8H8A1,1,0,0,1,8,6h5a1,1,0,0,1,0,2Z" style="fill: #2ca9bc;"/>
</g>
</svg>